<?xml version="1.0" standalone="no"?>
<!DOCTYPE svg PUBLIC "-//W3C//DTD SVG 20010904//EN"
 "http://www.w3.org/TR/2001/REC-SVG-20010904/DTD/svg10.dtd">
<svg version="1.0" xmlns="http://www.w3.org/2000/svg"
 width="512.000000pt" height="512.000000pt" viewBox="0 0 512.000000 512.000000"
 preserveAspectRatio="xMidYMid meet">
<metadata>
Created by potrace 1.14, written by Peter Selinger 2001-2017
</metadata>
<g transform="translate(0.000000,512.000000) scale(0.100000,-0.100000)"
fill="#000000" stroke="none">
<path d="M4128 4265 c-2 -1 -50 -6 -108 -9 -58 -4 -116 -8 -130 -10 -84 -12
-123 -18 -190 -31 -41 -8 -86 -17 -100 -19 -118 -23 -302 -75 -500 -143 -118
-41 -224 -74 -235 -74 -11 0 -51 5 -90 10 -38 5 -137 8 -220 6 -221 -4 -421
-54 -631 -157 -314 -156 -594 -465 -709 -783 -10 -27 -25 -56 -33 -62 -195
-160 -442 -392 -573 -538 -197 -222 -366 -491 -433 -690 -31 -92 -35 -110 -43
-221 -14 -199 78 -363 257 -458 87 -46 188 -74 335 -93 57 -7 309 -6 370 1 22
3 63 8 90 11 28 3 73 10 100 15 28 5 61 11 75 14 162 28 411 94 595 158 105
36 307 114 349 134 16 8 33 14 38 14 21 0 424 197 593 290 188 103 528 315
620 387 17 13 35 27 40 31 140 102 406 310 425 331 3 3 30 28 60 55 454 406
751 816 826 1141 63 272 -29 485 -258 593 -127 60 -209 79 -378 88 -58 3 -113
7 -122 8 -9 2 -18 3 -20 1z m-363 -509 c339 -41 465 -264 330 -586 -26 -62
-86 -170 -95 -170 -3 0 -16 28 -29 63 -92 239 -276 483 -478 634 -35 26 -61
48 -60 50 2 1 37 6 78 9 41 4 75 7 76 8 5 4 123 -1 178 -8z m-2640 -1411 c8
-90 46 -251 80 -340 58 -152 164 -339 247 -434 16 -18 27 -35 24 -38 -6 -6
-149 -5 -201 2 -181 23 -317 102 -367 213 -17 37 -22 67 -22 142 -1 105 12
155 70 275 30 61 155 258 160 252 1 -1 5 -33 9 -72z"/>
<path d="M3988 2112 c-80 -69 -296 -228 -450 -330 -324 -217 -613 -380 -943
-532 -141 -65 -163 -75 -280 -121 l-110 -44 75 -17 c110 -26 188 -33 350 -32
224 3 401 45 615 149 272 131 518 369 657 635 56 106 138 320 123 320 -2 0
-19 -13 -37 -28z"/>
</g>
</svg>
